<svg width="24" height="24" viewBox="0 0 24 24" fill="none" xmlns="http://www.w3.org/2000/svg">
<path fill-rule="evenodd" clip-rule="evenodd" d="M13.5 3C13.5 2.44771 13.9477 2 14.5 2L16.9971 2C16.998 2 16.999 2 17 2C17.001 2 17.002 2 17.0029 2L19.5 2.00001C20.0523 2.00001 20.5 2.44773 20.5 3.00001C20.5 3.55229 20.0523 4.00001 19.5 4.00001L18 4.00001V6L18.8385 6C19.3657 5.99998 19.8205 5.99997 20.195 6.03057C20.5904 6.06287 20.9836 6.13419 21.362 6.32698C21.9265 6.6146 22.3854 7.07354 22.673 7.63803C22.8658 8.01641 22.9371 8.40963 22.9694 8.80497C23 9.17954 23 9.63429 23 10.1614V13.8386C23 14.3657 23 14.8205 22.9694 15.195C22.9371 15.5904 22.8658 15.9836 22.673 16.362C22.3854 16.9265 21.9265 17.3854 21.362 17.673C20.9836 17.8658 20.5904 17.9371 20.195 17.9694C19.8205 18 19.3657 18 18.8385 18H18V20L19.5 20C20.0523 20 20.5 20.4477 20.5 21C20.5 21.5523 20.0523 22 19.5 22L14.5 22C13.9477 22 13.5 21.5523 13.5 21C13.5 20.4477 13.9477 20 14.5 20L16 20V17.0012C16 17.0008 16 17.0004 16 17C16 16.9996 16 16.9992 16 16.9988L16 7.00066C16 7.00044 16 7.00088 16 7.00066C16 7.00044 16 6.99956 16 6.99934V4L14.5 4C13.9477 4 13.5 3.55228 13.5 3ZM18 8V16H18.8C19.3766 16 19.7488 15.9992 20.0322 15.9761C20.3038 15.9539 20.4045 15.9162 20.454 15.891C20.6422 15.7951 20.7951 15.6422 20.891 15.454C20.9162 15.4045 20.9539 15.3038 20.9761 15.0322C20.9992 14.7488 21 14.3766 21 13.8V10.2C21 9.62345 20.9992 9.25117 20.9761 8.96784C20.9539 8.69617 20.9162 8.59545 20.891 8.54601C20.7951 8.35785 20.6422 8.20487 20.454 8.10899C20.4046 8.0838 20.3038 8.04612 20.0322 8.02393C19.7488 8.00078 19.3766 8 18.8 8H18ZM5.16146 6L13 6C13.5523 6 14 6.44772 14 7C14 7.55228 13.5523 8 13 8H5.2C4.62345 8 4.25118 8.00078 3.96784 8.02393C3.69617 8.04612 3.59546 8.0838 3.54601 8.10899C3.35785 8.20487 3.20487 8.35785 3.109 8.54601C3.0838 8.59545 3.04612 8.69617 3.02393 8.96784C3.00078 9.25117 3 9.62345 3 10.2V13.8C3 14.3766 3.00078 14.7488 3.02393 15.0322C3.04612 15.3038 3.0838 15.4045 3.109 15.454C3.20487 15.6422 3.35785 15.7951 3.54601 15.891C3.59546 15.9162 3.69617 15.9539 3.96784 15.9761C4.25117 15.9992 4.62345 16 5.2 16H13C13.5523 16 14 16.4477 14 17C14 17.5523 13.5523 18 13 18H5.16148C4.63432 18 4.17955 18 3.80497 17.9694C3.40963 17.9371 3.01641 17.8658 2.63803 17.673C2.07354 17.3854 1.6146 16.9265 1.32698 16.362C1.13419 15.9836 1.06287 15.5904 1.03057 15.195C0.999967 14.8205 0.999983 14.3657 1 13.8385V10.1615C0.999983 9.63431 0.999967 9.17954 1.03057 8.80497C1.06287 8.40963 1.13419 8.01641 1.32698 7.63803C1.6146 7.07354 2.07354 6.6146 2.63803 6.32698C3.01641 6.13419 3.40963 6.06287 3.80497 6.03057C4.17955 5.99997 4.63431 5.99998 5.16146 6Z" fill="#332E2B"/>
</svg>
