<svg width="24" height="22" viewBox="0 0 24 22" fill="none" xmlns="http://www.w3.org/2000/svg">
<path d="M12 13.0029C13.1322 13.0029 14.05 12.1059 14.05 10.9993C14.05 9.8928 13.1322 8.99577 12 8.99577C10.8678 8.99577 9.95001 9.8928 9.95001 10.9993C9.95001 12.1059 10.8678 13.0029 12 13.0029Z" fill="#332E2B"/>
<path fill-rule="evenodd" clip-rule="evenodd" d="M2.39372 10.0011C1.93529 10.4056 1.80001 10.7448 1.80001 10.999C1.80001 11.2533 1.93529 11.5925 2.39372 11.9969C2.85097 12.4003 3.55846 12.8002 4.50153 13.1521C6.38166 13.8537 9.0326 14.3039 12 14.3039C14.9674 14.3039 17.6184 13.8537 19.4985 13.1521C20.4416 12.8002 21.1491 12.4003 21.6063 11.9969C22.0647 11.5925 22.2 11.2533 22.2 10.999C22.2 10.7448 22.0647 10.4056 21.6063 10.0011C21.1491 9.59768 20.4416 9.19787 19.4985 8.84594C17.6184 8.14434 14.9674 7.69414 12 7.69414C9.0326 7.69414 6.38166 8.14434 4.50153 8.84594C3.55846 9.19787 2.85097 9.59768 2.39372 10.0011ZM3.94214 7.34692C6.04323 6.56285 8.89229 6.09414 12 6.09414C15.1077 6.09414 17.9568 6.56285 20.0579 7.34692C21.1054 7.73783 22.0088 8.22254 22.6648 8.80132C23.3197 9.37906 23.8 10.1197 23.8 10.999C23.8 11.8783 23.3197 12.619 22.6648 13.1967C22.0088 13.7755 21.1054 14.2602 20.0579 14.6511C17.9568 15.4352 15.1077 15.9039 12 15.9039C8.89229 15.9039 6.04323 15.4352 3.94214 14.6511C2.8946 14.2602 1.99118 13.7755 1.33518 13.1967C0.680348 12.619 0.200012 11.8783 0.200012 10.999C0.200012 10.1197 0.680348 9.37906 1.33518 8.80132C1.99118 8.22254 2.8946 7.73783 3.94214 7.34692Z" fill="#332E2B"/>
<path fill-rule="evenodd" clip-rule="evenodd" d="M8.10789 2.37604C7.52372 2.19134 7.14641 2.24215 6.9069 2.37729C6.6674 2.51244 6.43372 2.80639 6.3053 3.3932C6.17676 3.98053 6.17626 4.77678 6.3355 5.74819C6.65308 7.68551 7.57771 10.15 9.05944 12.6583C10.5412 15.1666 12.2626 17.1815 13.8205 18.4189C14.6016 19.0394 15.3074 19.4371 15.8921 19.622C16.4763 19.8067 16.8536 19.7559 17.0931 19.6207C17.3326 19.4856 17.5663 19.1916 17.6947 18.6048C17.8233 18.0175 17.8238 17.2213 17.6645 16.2498C17.3469 14.3125 16.4223 11.848 14.9406 9.33973C13.4589 6.83142 11.7374 4.81656 10.1795 3.5791C9.3984 2.95861 8.69259 2.56091 8.10789 2.37604ZM11.1862 2.34929C12.9354 3.73873 14.7782 5.91968 16.3341 8.55343C17.8899 11.1872 18.901 13.8374 19.2576 16.0127C19.4354 17.0975 19.4576 18.1071 19.2725 18.9531C19.0872 19.7997 18.6718 20.5667 17.9069 20.9983C17.142 21.4299 16.2546 21.398 15.4118 21.1315C14.5696 20.8652 13.6862 20.3417 12.8138 19.6487C11.0646 18.2593 9.22181 16.0784 7.66597 13.4446C6.11014 10.8108 5.09901 8.16062 4.74242 5.98536C4.56458 4.90049 4.5424 3.89098 4.72755 3.04493C4.91282 2.19836 5.32821 1.43132 6.09312 0.999703C6.85803 0.568083 7.7454 0.600016 8.58817 0.866486C9.43043 1.13279 10.3139 1.65633 11.1862 2.34929Z" fill="#332E2B"/>
<path fill-rule="evenodd" clip-rule="evenodd" d="M17.6947 3.3932C17.5663 2.80639 17.3326 2.51244 17.0931 2.37729C16.8536 2.24215 16.4763 2.19134 15.8921 2.37604C15.3074 2.56091 14.6016 2.95861 13.8205 3.5791C12.2626 4.81656 10.5412 6.83142 9.05944 9.33973C7.57771 11.848 6.65308 14.3125 6.3355 16.2498C6.17626 17.2213 6.17676 18.0175 6.3053 18.6048C6.43372 19.1916 6.6674 19.4856 6.9069 19.6207C7.14641 19.7559 7.52372 19.8067 8.10789 19.622C8.6926 19.4371 9.3984 19.0394 10.1795 18.4189C11.7374 17.1815 13.4589 15.1666 14.9406 12.6583C16.4223 10.15 17.3469 7.68551 17.6645 5.74819C17.8238 4.77678 17.8233 3.98053 17.6947 3.3932ZM19.2576 5.98536C18.901 8.16062 17.8899 10.8108 16.334 13.4446C14.7782 16.0784 12.9354 18.2593 11.1862 19.6487C10.3139 20.3417 9.43042 20.8652 8.58817 21.1315C7.7454 21.398 6.85803 21.4299 6.09312 20.9983C5.32821 20.5667 4.91282 19.7997 4.72755 18.9531C4.5424 18.1071 4.56458 17.0975 4.74242 16.0127C5.09901 13.8374 6.11014 11.1872 7.66597 8.55343C9.22181 5.91968 11.0646 3.73873 12.8138 2.34929C13.6862 1.65633 14.5696 1.13279 15.4119 0.866486C16.2546 0.600016 17.142 0.568083 17.9069 0.999702C18.6718 1.43132 19.0872 2.19836 19.2725 3.04493C19.4576 3.89098 19.4354 4.90049 19.2576 5.98536Z" fill="#332E2B"/>
</svg>
